<svg width="16" height="16" viewBox="0 0 16 16" fill="none" xmlns="http://www.w3.org/2000/svg">
<path d="M3.32556 9.88085C3.87734 8.94077 4.43251 8.01791 4.92015 7.04264C5.34278 6.19737 5.83295 5.35761 6.40029 4.60117C6.85286 3.99774 7.16111 3.29071 7.61339 2.71666C7.90586 2.34545 8.20547 1.95232 8.55946 1.618C8.90966 1.28725 9.15774 1 9.65812 1C9.98037 1 10.5373 1.2672 10.8254 1.42726C11.2453 1.66049 11.688 1.83538 12.0614 2.16733C12.2462 2.33156 12.8306 2.81085 12.8168 3.05999C12.7916 3.51343 12.3921 3.95386 12.1988 4.36465C11.8229 5.16328 11.3901 5.90997 11.0162 6.69931C10.8986 6.94748 10.7916 7.18443 10.753 7.45464C10.7324 7.59829 10.5894 7.69118 10.5508 7.83611C10.4807 8.09907 10.3398 8.32961 10.2456 8.58381C10.0364 9.14857 9.6428 9.68302 9.34912 10.2051C9.04828 10.7399 8.78917 11.2958 8.46791 11.8188C8.05901 12.4844 7.96214 12.5644 7.61339 13.2619C7.4466 13.5955 4.73212 14.8157 4.3962 14.9836" stroke="white" stroke-linecap="round"/>
<path d="M3.90408 9.98364C3.79839 9.99685 4.81188 10.6428 4.91118 10.7161C5.43636 11.1034 6.03296 11.4413 6.59732 11.769C7.16261 12.0972 7.84621 12.151 8.43605 12.387" stroke="white" stroke-linecap="round"/>
<path d="M8.01025 2.78534C8.5311 2.83269 8.87379 3.27595 9.31491 3.472C9.72506 3.65429 10.081 3.92369 10.4822 4.12433C11.0256 4.39601 11.5528 4.74903 12.1302 4.914" stroke="white" stroke-linecap="round"/>
<path d="M9.89636 4.00394C9.75829 3.8766 9.41201 4.38474 9.39636 4.5227C9.3799 4.66792 9.21886 4.85103 9.14384 4.97334C9.03925 5.14385 8.93631 5.31469 8.83071 5.48686C8.6794 5.73355 8.63371 6.09227 8.44182 6.31478C8.2494 6.53791 8.02157 6.96839 7.94182 7.25799C7.88742 7.45552 7.76237 7.66435 7.68929 7.86059C7.60556 8.08543 7.43149 8.22786 7.33071 8.43699C7.19502 8.71855 6.9699 8.98165 6.86101 9.2754C6.7957 9.45157 6.67085 9.63843 6.62364 9.80988C6.58718 9.94226 6.46627 10.2456 6.37111 10.3444C6.20766 10.5139 6.10712 10.8743 5.89636 10.9836" stroke="white" stroke-linecap="round"/>
<path d="M3.15295 9.83533C3.15295 10.9823 3.17419 12.1316 3.15295 13.2785C3.14903 13.4902 3.06757 13.7068 3.02259 13.9137C2.9872 14.0765 3.00397 14.2506 3.00397 14.4165C3.00397 14.6711 3.00397 14.9256 3.00397 15.1801C3.00397 15.434 3.12084 15.3104 3.30607 15.3104C3.62281 15.3104 3.8966 15.1344 4.18342 15.0311C4.47453 14.9263 4.77522 14.7565 5.0711 14.6793C5.43587 14.5842 5.7647 14.3595 6.13261 14.2676" stroke="white" stroke-linecap="round"/>
<path d="M3.28564 13.6284C3.34191 13.4971 4.8131 14.4907 5.00509 14.5387" stroke="white" stroke-linecap="round"/>
</svg>
