<svg width="24" height="24" viewBox="0 0 24 24" fill="none" xmlns="http://www.w3.org/2000/svg">
<path d="M5.03467 21.399C9.73184 21.399 14.4189 21.3326 19.1157 21.3326" stroke="white" stroke-linecap="round"/>
<path d="M5.1011 21.1997C4.93581 21.1584 5.01492 19.8671 5.04944 19.6868C5.11081 19.3663 5.13849 19.0228 5.23394 18.7126C5.32487 18.4171 5.21091 18.0461 5.33726 17.7754C5.45677 17.5193 5.44452 17.228 5.49962 16.9525C5.56857 16.6077 5.66716 16.2584 5.75054 15.9156C5.89159 15.3357 6.09733 14.8235 6.36308 14.292C6.84496 13.3282 7.19462 12.317 7.70625 11.3695C8.03382 10.7629 8.81917 10.6693 9.37413 10.4064C9.91968 10.148 10.652 9.98046 11.2634 9.97469C12.1747 9.96609 13.0898 9.96203 14.0014 9.97469C14.8238 9.98611 15.4353 10.4641 16.1121 10.864C16.661 11.1883 17.0486 12.0944 17.3519 12.6167C17.5163 12.8998 17.7621 13.1363 17.9645 13.3916C18.3326 13.8561 18.4585 14.4494 18.7541 14.9562C19.5014 16.2373 19.3814 17.6948 19.3814 19.1259C19.3814 19.5441 19.3814 19.9623 19.3814 20.3805C19.3814 20.7831 19.2486 21.14 19.2486 21.5318" stroke="white" stroke-linecap="round"/>
<path d="M12.3407 2.86773C12.061 2.86773 11.7242 2.82116 11.4477 2.87142C11.3369 2.89157 11.1112 3.07555 11.0086 3.1371C10.8163 3.25246 10.6075 3.34355 10.4145 3.45076C9.68324 3.85702 8.93173 4.37395 8.75401 5.26255C8.52646 6.40027 8.54314 7.38704 9.11932 8.40644C9.69121 9.41825 11.1023 9.60563 12.1488 9.76067C13.3867 9.94405 14.5896 9.66876 15.5584 8.86769C16.6637 7.95368 17.1229 6.49382 17.1229 5.09281C17.1229 3.94404 16.5539 2.87948 15.4698 2.436C14.8014 2.16255 14.1009 2.00427 13.3739 2.00427C12.7829 2.00427 12.1896 1.96299 11.6175 2.13711C11.0271 2.31677 10.4555 2.57236 9.88315 2.80131" stroke="white" stroke-linecap="round"/>
</svg>
