<svg width="16" height="16" viewBox="0 0 16 16" fill="none" xmlns="http://www.w3.org/2000/svg">
<path d="M3.11968 5.10678C2.69005 5.15133 2.76124 12.3047 3.1419 13.2995C3.29971 13.7119 3.68179 14.5474 4.11969 14.741C4.68376 14.9903 5.30724 15.0002 5.91971 15.0002C7.01231 15.0002 8.10492 15.0002 9.19752 15.0002C10.3343 15.0002 11.1605 14.801 12.1198 14.2743C12.4866 14.0729 12.4347 13.6622 12.5976 13.3202C12.7313 13.0394 13.1082 12.3668 13.1198 12.0861C13.1509 11.3313 13.5198 10.6258 13.5198 9.86683C13.5198 9.10079 13.7198 8.33434 13.7198 7.55421C13.7198 6.4584 13.7198 5.36258 13.7198 4.26677" stroke="#FF4949" stroke-linecap="round"/>
<path d="M2.91968 4.64012C3.77748 4.64012 4.52389 4.92012 5.36415 4.92012C6.21601 4.92012 7.06787 4.92012 7.91973 4.92012C9.00583 4.92012 10.1776 4.98914 11.2142 4.68678C11.6347 4.56414 13.3538 4.38988 13.5198 4.08011" stroke="#FF4949" stroke-linecap="round"/>
<path d="M5.41964 8.00015C5.16466 9.40681 5.04028 10.9194 4.61963 12.2935" stroke="#FF4949" stroke-linecap="round"/>
<path d="M8.81982 8.00015V12.0135" stroke="#FF4949" stroke-linecap="round"/>
<path d="M11.0198 7.44014C11.0198 8.41653 10.9183 9.44382 11.0976 10.4061C11.1369 10.617 11.007 11.2609 11.2198 11.3602" stroke="#FF4949" stroke-linecap="round"/>
<path d="M2.81964 4.26676C2.57847 4.26676 2.14195 4.36034 2.04185 4.10083C1.90045 3.73423 2.14881 3.57095 2.31963 3.29193C2.5496 2.91631 3.53685 3.04627 3.91965 2.88748C4.40516 2.68609 5.39266 2.86674 5.91967 2.86674C6.56259 2.86674 7.2519 2.77341 7.91969 2.77341C9.3123 2.77341 10.7049 2.77341 12.0975 2.77341C12.7156 2.77341 13.4366 2.69425 13.9198 3.10008C14.5308 3.61339 13.2172 3.89816 13.1197 4.08009" stroke="#FF4949" stroke-linecap="round"/>
<path d="M6.81969 2.49342C6.81969 2.04851 6.78078 1.80092 7.16969 1.51859C7.40785 1.34571 7.77883 1.00007 8.0697 1.00007C8.46395 1.00007 8.97885 0.98571 9.19748 1.37341C9.38286 1.70215 9.5197 2.31078 9.5197 2.68009" stroke="#FF4949" stroke-linecap="round"/>
</svg>
