<?xml version="1.0" standalone="no"?>
<!DOCTYPE svg PUBLIC "-//W3C//DTD SVG 20010904//EN"
 "http://www.w3.org/TR/2001/REC-SVG-20010904/DTD/svg10.dtd">
<svg version="1.0" xmlns="http://www.w3.org/2000/svg"
 width="700.000000pt" height="700.000000pt" viewBox="0 0 700.000000 700.000000"
 preserveAspectRatio="xMidYMid meet">
<metadata>
Created by potrace 1.14, written by Peter Selinger 2001-2017
</metadata>
<g transform="translate(0.000000,700.000000) scale(0.100000,-0.100000)"
fill="#000000" stroke="none">
<path d="M6515 6124 c-5 -1 -22 -5 -36 -8 -65 -14 -485 -327 -699 -521 -202
-183 -439 -422 -584 -590 -14 -16 -26 -24 -26 -17 0 7 -8 31 -19 55 -10 23
-36 83 -57 132 -21 50 -43 97 -49 105 -5 8 -19 31 -29 50 -82 151 -228 313
-331 367 -117 61 -221 85 -375 88 -186 2 -463 -58 -760 -166 -104 -37 -329
-104 -420 -124 -8 -2 -98 -24 -200 -49 -102 -26 -196 -48 -210 -51 -14 -2
-126 -27 -250 -54 -124 -27 -236 -52 -250 -54 -14 -3 -81 -16 -150 -31 -69
-14 -136 -27 -150 -30 -14 -2 -81 -16 -150 -30 -69 -14 -136 -27 -150 -30 -14
-2 -59 -11 -100 -19 -77 -16 -265 -53 -310 -60 -14 -3 -83 -17 -155 -31 -71
-15 -146 -29 -165 -32 -19 -3 -38 -8 -41 -10 -4 -2 -24 -6 -45 -9 -22 -4 -46
-8 -54 -10 -19 -6 -295 -64 -335 -71 -118 -21 -195 -110 -195 -227 0 -109 101
-210 211 -210 l46 0 -23 -41 c-28 -48 -33 -143 -10 -197 18 -43 92 -147 194
-274 l80 -99 -4 -61 c-3 -33 -7 -80 -9 -105 -26 -297 -26 -902 -1 -1050 3 -14
7 -50 11 -80 6 -59 8 -75 30 -190 54 -289 146 -528 282 -734 82 -125 245 -290
363 -368 164 -107 282 -156 475 -192 20 -4 114 -15 189 -22 49 -4 422 -4 486
1 25 2 88 6 140 9 52 4 115 8 140 11 85 8 155 15 210 20 30 3 66 7 80 10 14 2
54 6 90 10 36 3 103 11 150 17 48 6 267 12 500 13 228 2 442 5 475 9 144 14
175 19 264 38 249 53 413 136 543 277 85 92 158 235 182 356 2 11 11 47 19 80
9 33 21 87 26 120 6 33 13 69 15 80 2 12 7 48 11 80 4 33 9 69 11 80 2 10 6
49 9 85 3 36 8 76 10 90 5 26 13 156 20 300 5 93 5 534 1 645 -4 83 -16 275
-21 325 -2 19 -6 67 -9 105 -6 68 -14 135 -21 185 -2 14 -7 48 -10 75 -11 80
-57 349 -61 357 -5 7 46 72 148 191 222 259 447 485 692 697 23 19 43 37 46
40 17 19 245 192 355 270 142 100 155 112 179 158 68 132 -20 297 -169 314
-22 3 -44 4 -50 2z m-2065 -801 c77 -34 157 -139 235 -308 74 -158 162 -426
148 -449 -4 -6 -68 -91 -141 -189 -74 -98 -149 -198 -166 -223 -17 -24 -175
-246 -351 -494 -365 -513 -444 -626 -472 -678 -11 -20 -51 -93 -90 -162 -38
-69 -86 -154 -105 -190 -31 -56 -109 -194 -159 -280 -102 -178 -273 -414 -356
-491 -61 -58 -97 -75 -128 -61 -26 12 -96 113 -132 192 -127 275 -169 345
-354 575 -96 120 -449 548 -515 625 -49 57 -258 305 -374 445 -69 83 -130 156
-137 163 -7 7 -29 34 -50 60 -21 26 -40 49 -43 52 -41 40 -86 109 -85 130 4
47 17 175 20 190 2 8 6 49 10 90 4 41 9 89 11 105 1 17 6 66 9 110 4 44 8 87
11 96 4 14 40 25 159 45 17 3 107 21 200 39 94 19 186 37 205 40 19 3 51 10
70 15 19 5 53 12 75 15 22 4 45 8 50 9 20 5 121 26 145 30 69 12 500 104 630
135 47 11 96 22 110 25 14 2 81 18 150 36 69 17 132 33 140 35 92 19 370 99
536 155 115 39 245 80 289 92 192 50 372 58 455 21z m-3663 -793 c2 -17 -1
-18 -17 -10 -30 16 -33 30 -8 30 17 0 24 -6 25 -20z m4169 -606 c2 -27 6 -60
9 -74 2 -14 7 -65 10 -115 4 -49 9 -106 10 -125 23 -235 23 -891 0 -1045 -2
-16 -7 -61 -10 -100 -18 -212 -50 -398 -98 -554 -48 -162 -200 -253 -472 -287
-22 -3 -51 -8 -65 -11 -14 -3 -227 -6 -475 -8 -247 -1 -465 -5 -482 -9 -40 -9
-40 -7 -8 28 93 100 224 290 354 511 45 77 86 147 91 155 5 8 34 61 65 118 62
113 68 125 162 292 76 133 50 96 483 705 367 517 411 577 417 572 2 -3 6 -26
9 -53z m-3751 -630 c39 -47 77 -93 85 -102 8 -10 37 -44 65 -77 27 -33 54 -65
60 -71 5 -6 28 -33 50 -60 22 -26 99 -118 170 -204 453 -541 563 -685 627
-820 113 -238 163 -325 238 -422 l22 -28 -49 -1 c-219 -5 -442 1 -509 15 -12
2 -37 7 -57 10 -169 27 -364 158 -495 333 -96 127 -200 387 -237 588 -20 114
-33 213 -44 347 -10 124 -13 578 -4 577 5 0 40 -38 78 -85z"/>
</g>
</svg>
