<svg width="224" height="224" viewBox="0 0 224 224" fill="none" xmlns="http://www.w3.org/2000/svg">
<path d="M13.3016 57.9841C13.5618 55.643 32.9169 56.9263 35.5142 56.9263C45.5793 56.9263 55.4557 56.5395 65.3659 58.2485C68.138 58.7263 71.034 60.0261 73.8279 60.0996C77.2406 60.1895 80.6687 60.0996 84.0819 60.0996C90.4582 60.0996 96.834 60.0996 103.21 60.0996C111.081 60.0996 118.999 59.7872 126.832 60.6284C139.206 61.957 151.336 62.7439 163.765 62.7439C179.19 62.7439 194.616 62.7439 210.041 62.7439" stroke="white" stroke-width="2" stroke-linecap="round"/>
<path d="M30.9547 25.931L31.148 25.623L31.9652 22.1781C32.0325 21.93 32.1394 21.7866 32.2856 21.748C32.4527 21.7097 32.6193 21.6923 32.7856 21.6956C33.2012 21.7039 33.4487 21.8024 33.5281 21.9911C33.6074 22.1798 33.6431 22.4715 33.6353 22.8664C33.6336 22.9495 33.621 23.0635 33.5972 23.2086C33.5948 23.3332 33.5935 23.3956 33.5935 23.3956L30.8089 33.2246L30.8032 33.5051C30.8008 33.6298 30.8195 33.7341 30.8594 33.8181C30.92 33.9024 31.0549 33.9155 31.2639 33.8574C31.8254 33.8478 32.4284 33.8391 33.073 33.8312C33.7388 33.8029 34.4258 33.7542 35.1339 33.6853C35.8425 33.5955 36.5312 33.4637 37.1998 33.29C37.869 33.0955 38.4666 32.8372 38.9927 32.5152C39.5193 32.1723 39.9436 31.7442 40.2657 31.231C40.609 30.6974 40.7883 30.0461 40.8037 29.2773C40.8232 28.3006 40.5726 27.3186 40.0518 26.3311C39.5519 25.3441 38.9048 24.4372 38.1106 23.6107C37.3164 22.784 36.4256 22.1114 35.4381 21.5927C34.4507 21.0741 33.479 20.8052 32.5231 20.7861C32.0452 20.7765 31.6171 20.8719 31.2389 21.0722C30.8819 21.2522 30.5557 21.4536 30.2602 21.6763C29.9652 21.8783 29.6805 22.0804 29.4062 22.2828C29.1323 22.4645 28.8707 22.5528 28.6213 22.5478C28.2057 22.5395 28.0021 22.3275 28.0104 21.9119C28.0108 21.8912 28.0112 21.8704 28.0116 21.8496C28.0329 21.8293 28.0437 21.8087 28.0441 21.7879C28.219 21.3549 28.4657 20.9752 28.784 20.649C29.1024 20.3227 29.451 20.0386 29.8301 19.7968C30.2299 19.5553 30.649 19.387 31.0875 19.2918C31.5471 19.1763 31.9951 19.1229 32.4315 19.1316C32.764 19.1383 33.0756 19.1445 33.3666 19.1503C33.6783 19.1565 33.9993 19.2149 34.3297 19.3255C35.3388 19.803 36.3358 20.3634 37.3207 21.0067C38.3269 21.6297 39.2271 22.3545 40.0213 23.1811C40.8159 23.9869 41.4522 24.9143 41.9301 25.9633C42.4085 26.9915 42.6354 28.1185 42.6109 29.3446C42.5913 30.3212 42.3773 31.1484 41.9688 31.8263C41.5607 32.4833 41.0196 33.0338 40.3455 33.4777C39.6714 33.9215 38.9059 34.2596 38.0489 34.4919C37.2128 34.7247 36.3467 34.8945 35.4506 35.0012C34.555 35.0873 33.6706 35.132 32.7975 35.1353C31.9455 35.1182 31.1769 35.0925 30.4915 35.058L30.3637 35.2114L27.8809 43.9862C27.8139 44.2136 27.6751 44.3979 27.4644 44.5392C27.2541 44.6597 27.0347 44.7177 26.8061 44.7131C26.6607 44.7102 26.5474 44.656 26.4664 44.5504C26.3853 44.4448 26.3253 44.3293 26.2862 44.2038C26.2471 44.0783 26.2187 43.9426 26.2008 43.7967C26.2037 43.6513 26.2162 43.5476 26.2382 43.4856L30.9547 25.931ZM43.3123 42.611C43.3127 42.5902 43.3245 42.5176 43.3478 42.3934C43.3711 42.2691 43.3943 42.1449 43.4176 42.0206C43.4413 41.8755 43.4646 41.7513 43.4874 41.6478C43.5107 41.5235 43.5228 41.4406 43.5236 41.3991L43.5261 41.2744L43.5298 41.0874L44.0055 39.1324C44.3736 38.3914 44.7516 37.6818 45.1394 37.0035C45.5479 36.3257 46.0067 35.732 46.5158 35.2225C47.0249 34.713 47.6047 34.3088 48.2551 34.01C48.9263 33.7116 49.7294 33.5717 50.6645 33.5904C50.8515 33.5942 51.0789 33.6611 51.3465 33.7912C51.6353 33.9009 51.9131 34.0416 52.18 34.2132C52.4675 34.3853 52.7237 34.5671 52.9486 34.7587C53.1946 34.9299 53.3785 35.0895 53.5003 35.2374C54.1468 35.1464 54.615 35.1038 54.9061 35.1096C55.1976 35.0947 55.4472 35.0893 55.6547 35.0934C55.8627 35.0768 56.0819 35.0396 56.3118 34.9818C56.5624 34.9245 56.9391 34.7969 57.4419 34.5991C57.7973 34.5022 58.141 34.4572 58.4736 34.4638C58.6194 34.4667 58.7529 34.5318 58.8753 34.6589C59.0179 34.7865 59.0881 34.9334 59.0844 35.0996C59.0807 35.3075 59.004 35.493 58.8551 35.6563C58.7066 35.8197 58.5278 35.92 58.3193 35.9574L54.4054 36.7523L54.0595 36.9013C54.0164 38.023 53.7456 39.0881 53.2471 40.0967C52.749 41.1054 52.0973 41.9863 51.2923 42.7393C50.4873 43.4924 49.5607 44.0871 48.5126 44.5235C47.4649 44.9391 46.38 45.1357 45.2579 45.1132C45.1748 45.1116 45.0399 45.0985 44.8533 45.074C44.6663 45.0702 44.5416 45.0677 44.4793 45.0665C44.0258 44.8703 43.7106 44.521 43.5336 44.0186C43.3773 43.5165 43.3036 43.0473 43.3123 42.611ZM45.2947 43.2742C45.3133 43.3785 45.3954 43.4322 45.5409 43.435C45.6864 43.438 45.7902 43.44 45.8526 43.4413C46.6007 43.4563 47.3732 43.2846 48.1704 42.9264C48.9679 42.5473 49.6844 42.0627 50.3198 41.4726C50.9764 40.8621 51.5098 40.1763 51.92 39.4154C52.3514 38.6341 52.575 37.8486 52.5908 37.059C51.9258 37.0457 51.2619 36.9804 50.599 36.8633C49.9366 36.7253 49.2937 36.6501 48.6703 36.6376L48.6391 36.637L45.9972 39.3282C45.8488 39.4707 45.7306 39.6658 45.6425 39.9135C45.5544 40.1612 45.4866 40.4301 45.4393 40.7202C45.3919 41.0103 45.3549 41.3005 45.3283 41.5911C45.3017 41.8816 45.2861 42.1411 45.2816 42.3697C45.2803 42.432 45.2774 42.5775 45.2728 42.8061C45.2683 43.0347 45.2756 43.1907 45.2947 43.2742ZM43.814 28.4332C43.8157 28.35 43.8288 28.2152 43.8533 28.0286C43.8782 27.8212 43.903 27.6242 43.9275 27.4376C43.9732 27.2306 44.0287 27.055 44.0939 26.9109C44.1799 26.767 44.2645 26.696 44.3476 26.6977L44.4405 26.7307C44.4609 26.7519 44.4912 26.7941 44.5315 26.8572C44.5723 26.8996 44.6132 26.9316 44.6544 26.9532C44.6872 27.3905 44.7601 27.9012 44.8731 28.4855C45.007 29.0702 45.1932 29.6353 45.4317 30.1805C45.6915 30.7054 45.9841 31.1478 46.3095 31.5077C46.6557 31.868 47.0677 32.053 47.5457 32.0625C48.0444 32.0725 48.5042 31.9465 48.9252 31.6848C49.367 31.4233 49.7894 31.0888 50.1926 30.6811C50.5957 30.2734 50.9787 29.8341 51.3415 29.3632C51.725 28.8928 52.087 28.4635 52.4274 28.0753C52.789 27.6668 53.1491 27.331 53.5078 27.0679C53.8872 26.8052 54.2639 26.6777 54.6379 26.6851C54.8667 26.6897 55.1561 26.7578 55.5068 26.8896C55.8579 27.0006 56.1766 27.1732 56.4634 27.4076C56.7704 27.6424 57.0247 27.9178 57.2264 28.2336C57.4488 28.5499 57.5563 28.8847 57.5494 29.2379C57.5488 29.2587 57.5382 29.2689 57.5174 29.2684C57.5174 29.2684 57.5174 29.2788 57.5169 29.2996L57.5153 29.3619C57.4733 29.4027 57.377 29.5255 57.2275 29.7304C57.0785 29.9145 56.9822 30.0373 56.9396 30.0988C56.7784 29.8461 56.6167 29.6039 56.4549 29.3719C56.3144 29.1404 56.1628 28.9295 56 28.7392C55.8377 28.5489 55.6637 28.3998 55.4791 28.2922C55.2945 28.1638 55.0774 28.0971 54.8278 28.0921C54.6826 28.0892 54.5682 28.0973 54.4847 28.1164C54.4017 28.1148 54.3282 28.1445 54.2644 28.2056C54.2011 28.2667 54.1266 28.3483 54.0415 28.4506C53.9569 28.532 53.8292 28.6542 53.66 28.8171C53.5535 28.9397 53.3519 29.1539 53.0545 29.4598C52.7782 29.7661 52.4806 30.0928 52.1619 30.4398C51.8639 30.7873 51.5765 31.1245 51.2997 31.4516C51.0234 31.7579 50.8215 31.9721 50.6944 32.0943C50.2518 32.3973 49.7683 32.6682 49.2438 32.9072C48.7405 33.1258 48.2291 33.2299 47.7096 33.2195C47.2524 33.2104 46.7878 33.0556 46.3157 32.7551C45.8644 32.455 45.4459 32.0725 45.0602 31.6075C44.6745 31.1424 44.3624 30.6372 44.1238 30.092C43.9065 29.5264 43.8032 28.9734 43.814 28.4332ZM58.447 40.4814C58.4911 40.3575 58.5576 40.1406 58.647 39.8305C58.7577 39.5001 58.8582 39.1488 58.9487 38.7764C59.0599 38.4045 59.1504 38.0529 59.2195 37.7216C59.3094 37.37 59.3765 37.1323 59.4206 37.0085C59.5553 36.5122 59.7117 35.9749 59.8894 35.3964C60.0879 34.8183 60.348 34.283 60.6699 33.7905C60.9918 33.298 61.3946 32.9007 61.8788 32.5986C62.3843 32.2761 63.0004 32.1221 63.7277 32.1367C63.998 32.142 64.1826 32.2497 64.2827 32.4596C64.4035 32.649 64.5029 32.8589 64.5817 33.0892C64.5801 33.1723 64.5769 33.3282 64.5721 33.5567C64.5891 33.7649 64.5966 33.9106 64.595 33.9937C64.5769 34.8872 64.4678 35.675 64.2667 36.357C64.0869 37.0394 63.8043 37.6678 63.4186 38.2421C63.0536 38.8169 62.6061 39.3588 62.0762 39.868C61.5468 40.3563 60.944 40.8743 60.2677 41.4221C60.2459 41.484 60.2124 41.5873 60.1682 41.7319C60.1235 41.8765 60.1006 41.98 60.0996 42.0423L60.0985 42.1047C60.091 42.4787 60.1469 42.7813 60.2672 43.0123C60.3874 43.2434 60.5497 43.4338 60.7545 43.5834C60.9807 43.7126 61.2286 43.8007 61.4978 43.8477C61.7883 43.8743 62.0996 43.8909 62.4321 43.8976C63.409 43.9171 64.3465 43.8007 65.2457 43.5484C66.1444 43.2962 66.9739 42.8762 67.7342 42.2885C67.8401 42.1867 67.9678 42.0437 68.1167 41.8596C68.2875 41.6552 68.4578 41.4507 68.6281 41.2462C68.7983 41.0417 68.9787 40.8687 69.1686 40.7269C69.3591 40.5644 69.5581 40.4853 69.7656 40.4894C69.9736 40.4936 70.0966 40.5792 70.1349 40.7462C70.1732 40.9133 70.1907 41.08 70.187 41.2462C70.178 41.7034 70.0237 42.1368 69.7246 42.5466C69.4469 42.936 69.0755 43.2924 68.6121 43.6157C68.1694 43.9187 67.6544 44.189 67.068 44.4268C66.5019 44.6649 65.9363 44.8615 65.3723 45.0165C64.8078 45.1715 64.2651 45.2854 63.7437 45.3581C63.2435 45.4313 62.8168 45.4643 62.4635 45.4573C61.3622 45.4352 60.4412 45.2401 59.7 44.8719C58.9801 44.4833 58.4964 43.7357 58.248 42.629L58.447 40.4814ZM63.027 34.4301C62.604 34.7958 62.2645 35.132 62.0091 35.4388C61.7745 35.7251 61.5814 36.033 61.4292 36.3626C61.2983 36.6718 61.177 37.0124 61.0658 37.3844C60.9753 37.7567 60.8732 38.1913 60.7593 38.6879C61.16 38.3841 61.4883 38.0788 61.7442 37.7721C62.0203 37.4658 62.2449 37.1481 62.4178 36.8189C62.5907 36.4898 62.7226 36.139 62.8131 35.7666C62.9041 35.3735 62.9754 34.928 63.027 34.4301ZM84.0457 45.234L85.2301 39.0213L85.2477 38.1485L85.9543 34.0154C86.0181 33.9336 86.133 33.8943 86.2996 33.8976C86.4661 33.8801 86.5805 33.872 86.6428 33.8733C86.8093 33.8766 86.995 33.9427 87.2004 34.0715C87.4265 34.18 87.5382 34.3278 87.5345 34.5148L87.4919 36.6343C87.5765 36.5736 87.7245 36.4518 87.9357 36.269C88.1474 36.0861 88.3693 35.8931 88.6024 35.6898C88.8556 35.487 89.0881 35.2942 89.2999 35.1113C89.5111 34.9285 89.6489 34.7961 89.7133 34.7143C89.9458 34.511 90.2193 34.3398 90.5343 34.2005C90.8695 34.0617 91.1824 33.9953 91.4734 34.0011C92.0762 34.0131 92.5402 34.2095 92.8647 34.5902C93.2106 34.9712 93.3777 35.4527 93.366 36.0346C93.3654 36.0761 93.3543 36.1071 93.333 36.1275C93.333 36.1275 93.3324 36.1482 93.3319 36.1898L93.3292 36.3144L92.0385 41.6208L91.9879 44.1455C92.6322 44.1584 93.2994 44.047 93.9901 43.8114C94.702 43.5553 95.3841 43.2364 96.0364 42.8544C96.6882 42.4725 97.2995 42.0378 97.871 41.5503C98.4424 41.042 98.9404 40.5531 99.3655 40.0834L99.4906 40.0859C99.6358 40.0889 99.7492 40.1431 99.83 40.2486C99.9322 40.3338 99.9822 40.4492 99.979 40.5947C99.97 41.0518 99.805 41.5058 99.4842 41.9567C99.1846 42.3873 98.792 42.7952 98.3057 43.1805C97.8406 43.5661 97.2931 43.9294 96.6626 44.2702C96.0529 44.6114 95.4442 44.9006 94.8366 45.1379C94.2497 45.3756 93.6746 45.5616 93.1106 45.6959C92.5466 45.8301 92.0672 45.8933 91.6724 45.8854C91.2776 45.8775 90.9674 45.7985 90.7418 45.6485C90.5162 45.4985 90.3433 45.3079 90.223 45.0769C90.1241 44.8254 90.057 44.5538 90.0209 44.2621C90.006 43.9708 90.0017 43.6589 90.0086 43.3264L90.0166 42.9212L91.3532 36.8986L91.3739 35.87C90.8748 35.86 90.372 36.0683 89.8644 36.4947C89.3781 36.9215 88.9312 37.4426 88.5236 38.0581C88.1373 38.674 87.792 39.3011 87.4882 39.9395C87.2052 40.5783 86.9971 41.1042 86.8641 41.5173C86.8199 41.6619 86.7524 41.9205 86.6614 42.2928C86.5709 42.6652 86.4799 43.0583 86.3884 43.4723C86.3177 43.8866 86.2474 44.2802 86.1777 44.653C86.108 45.0258 86.0612 45.2951 86.0367 45.4609C86.0554 45.586 86.0117 45.6787 85.9069 45.7389C85.8223 45.7996 85.7175 45.8494 85.5919 45.8886C85.4669 45.9068 85.3318 45.9145 85.186 45.9116C85.0615 45.9091 84.9577 45.907 84.8742 45.9054C84.6874 45.9016 84.5012 45.8667 84.315 45.8007C84.1293 45.7346 84.0388 45.5769 84.0441 45.3275L84.0457 45.234ZM98.8266 45.2177C98.8276 45.1554 98.8308 44.9995 98.8356 44.7501C98.8409 44.5008 98.8441 44.3345 98.8457 44.2514C98.5174 42.9976 98.4903 41.7706 98.7632 40.5703C99.0575 39.3705 99.547 38.2993 100.231 37.3568C100.936 36.3938 101.815 35.6006 102.867 34.9773C103.94 34.3335 105.101 33.9513 106.351 33.8308L106.912 33.842C107.369 33.8512 107.741 33.9625 108.028 34.1762C108.336 34.3694 108.57 34.6235 108.729 34.9386C108.91 35.254 109.028 35.6098 109.083 36.0058C109.158 36.4023 109.191 36.7979 109.183 37.1927C109.173 37.733 109.1 38.2616 108.965 38.7787C108.851 39.2753 108.716 39.7819 108.56 40.2985C108.425 40.8155 108.29 41.3325 108.155 41.8495C108.041 42.3461 107.979 42.875 107.967 43.436L107.964 43.623C107.983 43.665 108.002 43.7901 108.019 43.9983C108.056 44.1862 108.085 44.3011 108.105 44.3431C108.147 44.3439 108.251 44.3564 108.416 44.3805C108.583 44.3838 108.686 44.3858 108.728 44.3867C108.936 44.3908 109.133 44.3948 109.32 44.3985C109.528 44.3819 109.737 44.3341 109.947 44.2552L115.923 41.6306C115.944 41.6311 115.976 41.6317 116.017 41.6325C116.08 41.613 116.121 41.6034 116.142 41.6038C116.35 41.608 116.515 41.6736 116.637 41.8008C116.78 41.9284 116.85 42.0961 116.846 42.3039C116.843 42.4078 116.831 42.5115 116.808 42.615C116.807 42.6981 116.753 42.7802 116.647 42.8612C116.5 42.9622 116.227 43.1022 115.828 43.2814C115.45 43.4609 115.041 43.6606 114.6 43.8805C114.159 44.1003 113.739 44.3102 113.34 44.5101C112.962 44.7104 112.689 44.8401 112.522 44.8991C112.228 45.0595 111.902 45.2089 111.546 45.3473C111.19 45.4649 110.824 45.5823 110.448 45.6995C110.071 45.8167 109.695 45.9131 109.319 45.9888C108.965 46.0441 108.642 46.0688 108.351 46.063C107.894 46.0538 107.522 45.9736 107.234 45.8224C106.946 45.6503 106.732 45.4382 106.592 45.1859C106.452 44.9128 106.354 44.599 106.298 44.2446C106.264 43.8697 106.272 43.4853 106.321 43.0913C105.899 43.4155 105.445 43.7598 104.96 44.1243C104.474 44.4887 103.969 44.8216 103.443 45.1229C102.918 45.4242 102.382 45.6838 101.838 45.9015C101.293 46.1193 100.74 46.2226 100.179 46.2114C99.8667 46.2051 99.5879 46.1268 99.3416 45.9763C99.0953 45.8051 98.9239 45.5522 98.8266 45.2177ZM100.523 44.5968C101.001 44.6064 101.533 44.4819 102.121 44.2234C102.708 43.9441 103.287 43.6023 103.856 43.1979C104.425 42.7935 104.943 42.3673 105.409 41.9193C105.876 41.4505 106.238 41.0316 106.495 40.6625C106.528 40.0396 106.623 39.449 106.78 38.8909C106.958 38.3124 107.052 37.7218 107.065 37.1192C107.066 37.0776 107.056 37.0151 107.037 36.9315C107.039 36.8484 107.04 36.7861 107.041 36.7446C106.775 36.5106 106.55 36.3709 106.363 36.3256C106.177 36.2803 105.928 36.2546 105.616 36.2483C105.575 36.2475 105.481 36.2456 105.336 36.2427C105.211 36.2402 105.128 36.2489 105.086 36.2689C104.959 36.3703 104.747 36.5636 104.451 36.8486C104.154 37.113 103.836 37.4081 103.498 37.7339C103.179 38.0601 102.872 38.3658 102.575 38.6509C102.299 38.9364 102.108 39.1301 102.002 39.2319C101.981 39.2315 101.939 39.2722 101.875 39.3541C101.811 39.4152 101.737 39.4968 101.652 39.599C101.587 39.7017 101.523 39.8044 101.458 39.907C101.415 39.9893 101.383 40.0614 101.361 40.1233L100.539 43.7552L100.523 44.5968ZM142.133 45.4912C142.073 45.3653 141.984 45.1348 141.866 44.7998C141.748 44.4648 141.62 44.1089 141.482 43.732C141.344 43.355 141.206 42.9988 141.067 42.6635C140.949 42.3285 140.86 42.0981 140.8 41.9721C140.76 41.8882 140.72 41.8042 140.681 41.7203C140.661 41.6368 140.61 41.5734 140.528 41.5301C140.062 41.9574 139.544 42.4044 138.974 42.8711C138.423 43.3382 137.833 43.7629 137.202 44.1453C136.592 44.5073 135.951 44.8063 135.282 45.0424C134.612 45.2576 133.945 45.3586 133.28 45.3454C132.553 45.3308 131.987 45.07 131.581 44.563C131.176 44.0352 130.865 43.4158 130.651 42.7047C130.437 41.9728 130.306 41.2322 130.259 40.4829C130.212 39.7336 130.193 39.12 130.203 38.642C130.222 37.6862 130.395 36.8269 130.722 36.0643C131.049 35.2809 131.499 34.6247 132.071 34.0956C132.664 33.5462 133.358 33.134 134.153 32.8588C134.949 32.5837 135.835 32.4559 136.811 32.4754C137.497 32.4891 138.096 32.6674 138.609 33.0103C139.123 33.3324 139.55 33.7567 139.894 34.2832C140.258 34.7894 140.548 35.3461 140.765 35.9533C141.002 36.5609 141.198 37.1469 141.353 37.7113C141.542 37.6111 141.765 37.3765 142.022 37.0075C142.3 36.618 142.578 36.1974 142.858 35.7457C143.158 35.2736 143.438 34.8115 143.696 34.3593C143.976 33.8867 144.192 33.5065 144.343 33.2185C144.407 33.1158 144.548 32.8588 144.764 32.4473C145.001 32.0155 145.249 31.5528 145.508 31.0591C145.788 30.5657 146.037 30.1029 146.253 29.6707C146.491 29.2389 146.641 28.9717 146.706 28.8691C146.727 28.8279 146.781 28.7562 146.866 28.654C146.952 28.5309 147.005 28.4489 147.027 28.4078C147.006 28.4073 146.996 28.3968 146.997 28.376L146.998 28.3136L146.999 28.2201C146.044 28.201 145.121 28.1098 144.23 27.9465C143.36 27.7836 142.596 27.498 141.939 27.09C141.282 26.6818 140.753 26.1307 140.351 25.4367C139.97 24.7431 139.79 23.8352 139.813 22.7131C139.814 22.6508 139.817 22.4949 139.822 22.2455C139.848 21.9966 139.862 21.8306 139.864 21.7475C139.93 21.5409 140.048 21.377 140.217 21.2556C140.386 21.1135 140.575 21.0237 140.783 20.9863C140.971 20.9485 141.104 21.0551 141.182 21.3061C141.281 21.5575 141.357 21.8917 141.412 22.3085C141.486 22.7258 141.571 23.1744 141.665 23.6544C141.78 24.1349 141.969 24.5959 142.23 25.0377C142.512 25.4591 142.88 25.8302 143.33 26.1511C143.802 26.4723 144.432 26.6616 145.221 26.719C145.263 26.7198 145.397 26.7329 145.626 26.7583C145.875 26.7633 146.083 26.7674 146.249 26.7707C146.353 26.7728 146.498 26.7757 146.685 26.7794C146.893 26.7836 147.09 26.7876 147.278 26.7913C147.486 26.7746 147.673 26.7472 147.841 26.709C148.029 26.6504 148.166 26.57 148.251 26.4678C148.378 26.3248 148.591 26.0796 148.889 25.7322C149.208 25.3644 149.528 24.9862 149.847 24.5976C150.167 24.209 150.475 23.841 150.773 23.4936C151.072 23.1253 151.285 22.8698 151.412 22.7268C151.773 22.3806 152.175 22.0352 152.618 21.6907C153.062 21.3461 153.525 21.0436 154.008 20.783C154.491 20.5224 154.995 20.3142 155.518 20.1584C156.04 20.0025 156.572 19.93 157.112 19.9408C157.486 19.9483 157.797 20.0272 158.043 20.1777C158.31 20.3286 158.514 20.5301 158.654 20.7824C158.795 21.0139 158.884 21.2858 158.919 21.5984C158.975 21.8905 159.001 22.1925 158.994 22.5042C158.982 23.1068 158.815 23.6335 158.495 24.0845C158.195 24.5358 157.802 24.9333 157.317 25.277C156.832 25.6208 156.307 25.9116 155.741 26.1498C155.195 26.3883 154.672 26.5858 154.17 26.742C154.002 26.801 153.699 26.8885 153.26 27.0044C152.821 27.1204 152.341 27.2563 151.818 27.4122C151.316 27.5476 150.836 27.6732 150.376 27.7887C149.937 27.9047 149.624 27.9712 149.436 27.9882C149.288 28.1307 149.118 28.3041 148.927 28.5081C148.757 28.7126 148.628 28.8971 148.542 29.0617L144.568 35.9982C144.547 35.9978 144.515 36.0179 144.473 36.0586C144.452 36.079 144.431 36.0994 144.409 36.1197C144.409 36.1613 144.376 36.2438 144.311 36.3672C144.246 36.4699 144.182 36.5933 144.117 36.7375C144.052 36.8609 143.987 36.9844 143.922 37.1078C143.857 37.2312 143.824 37.3033 143.824 37.3241C143.76 37.406 143.643 37.57 143.471 37.816C143.321 38.0416 143.15 38.2877 142.958 38.5541C142.766 38.7997 142.584 39.0351 142.413 39.2604C142.263 39.486 142.156 39.6398 142.092 39.7217L142.09 39.8152L142.089 39.8775C142.224 40.4207 142.339 40.8907 142.435 41.2877C142.552 41.6642 142.659 42.0301 142.756 42.3854C142.874 42.7412 143.012 43.1181 143.17 43.5163C143.329 43.9144 143.537 44.3863 143.797 44.932C143.877 45.0791 143.988 45.2164 144.131 45.344C144.275 45.4716 144.417 45.5992 144.56 45.7268C144.724 45.8548 144.856 45.9926 144.957 46.1401C145.08 46.2673 145.139 46.4036 145.137 46.5491C145.129 46.9231 144.938 47.1063 144.564 47.0989C144.024 47.0881 143.549 46.9227 143.14 46.6027C142.73 46.2827 142.395 45.9122 142.133 45.4912ZM131.767 38.3615C131.762 38.6108 131.774 39.0269 131.805 39.6095C131.835 40.1714 131.906 40.7549 132.019 41.36C132.153 41.9448 132.35 42.4684 132.611 42.931C132.893 43.3939 133.273 43.6302 133.751 43.6397C134.312 43.6509 134.813 43.5362 135.254 43.2956C135.716 43.0554 136.199 42.8364 136.702 42.6386L139.973 39.6793L139.975 39.5546C139.982 39.1806 139.899 38.6904 139.724 38.084C139.57 37.4781 139.343 36.8811 139.043 36.2931C138.743 35.705 138.389 35.2094 137.981 34.8063C137.574 34.3823 137.131 34.1656 136.653 34.1561C135.967 34.1424 135.322 34.2126 134.716 34.3668C134.13 34.5214 133.626 34.7712 133.204 35.1161C132.781 35.4611 132.44 35.9012 132.18 36.4364C131.92 36.9718 131.782 37.6134 131.767 38.3615ZM156.798 21.6183C156.299 21.6084 155.799 21.7023 155.296 21.9001C154.792 22.0979 154.309 22.3585 153.845 22.6819C153.382 23.0052 152.948 23.3603 152.546 23.7472C152.143 24.1342 151.793 24.5013 151.495 24.8488C151.41 24.9302 151.304 25.0528 151.176 25.2166C151.069 25.3807 150.951 25.5343 150.823 25.6773C150.717 25.7999 150.621 25.9227 150.535 26.0457C150.45 26.1479 150.408 26.1991 150.408 26.1991L150.405 26.3549L150.529 26.3574C150.55 26.3578 150.696 26.3191 150.968 26.2415C151.24 26.1637 151.553 26.0765 151.909 25.9796C152.285 25.8624 152.662 25.7556 153.038 25.6592C153.414 25.542 153.707 25.4439 153.917 25.3649C154.231 25.2673 154.587 25.1393 154.985 24.9809C155.404 24.8022 155.793 24.5917 156.151 24.3494C156.53 24.1076 156.847 23.8333 157.103 23.5265C157.358 23.2199 157.49 22.8691 157.498 22.4743C157.504 22.1418 157.457 21.9226 157.355 21.8166C157.275 21.6903 157.089 21.6242 156.798 21.6183ZM151.833 40.6648C151.856 40.5613 151.923 40.3756 152.032 40.1075C152.141 39.8395 152.251 39.5506 152.361 39.241C152.492 38.9318 152.612 38.6432 152.721 38.3751C152.83 38.1071 152.907 37.9215 152.95 37.8184C153.082 37.4884 153.201 37.2725 153.306 37.1707C153.433 37.0693 153.652 37.0217 153.964 37.0279C154.297 37.0346 154.513 37.1532 154.612 37.3839C154.711 37.6145 154.758 37.8857 154.752 38.1974C154.741 38.7377 154.648 39.2347 154.472 39.6886C154.318 40.1221 154.143 40.5655 153.947 41.0189C153.751 41.4515 153.564 41.9259 153.388 42.4421C153.232 42.9379 153.148 43.5183 153.135 44.1832C153.134 44.2664 153.131 44.3911 153.128 44.5573C153.124 44.7027 153.132 44.8588 153.149 45.0254C153.167 45.1713 153.206 45.3072 153.266 45.4332C153.326 45.5383 153.408 45.5919 153.512 45.594C154.052 45.6048 154.595 45.5117 155.139 45.3147C155.705 45.0973 156.25 44.8484 156.776 44.5679C157.322 44.267 157.838 43.9447 158.323 43.601C158.829 43.2369 159.282 42.9238 159.683 42.6615C159.83 42.5605 159.936 42.4587 160 42.3561C160.085 42.2538 160.16 42.1617 160.224 42.0799C160.289 41.9772 160.363 41.8956 160.447 41.8349C160.553 41.7539 160.71 41.7154 160.918 41.7195C161.187 41.725 161.404 41.7917 161.568 41.9197C161.753 42.0273 161.843 42.2266 161.837 42.5175C161.834 42.6422 161.822 42.7563 161.799 42.8598C161.797 42.9636 161.743 43.0561 161.638 43.1372C161.615 43.1991 161.531 43.2805 161.383 43.3815C161.257 43.4829 161.119 43.5945 160.971 43.7163C160.823 43.8173 160.686 43.9185 160.56 44.0199C160.433 44.1005 160.339 44.1506 160.276 44.1701C160.255 44.1697 160.192 44.1996 160.087 44.2599C160.003 44.2998 159.951 44.3195 159.93 44.3191C159.909 44.3395 159.877 44.37 159.834 44.4107C159.814 44.4311 159.802 44.4517 159.802 44.4725C159.359 44.7962 158.875 45.1295 158.348 45.4724C157.842 45.7949 157.307 46.096 156.739 46.3757C156.173 46.6346 155.587 46.8515 154.98 47.0265C154.395 47.2019 153.811 47.2838 153.229 47.2721C152.73 47.2622 152.349 47.1298 152.083 46.8751C151.84 46.5999 151.659 46.2637 151.542 45.8664C151.426 45.4691 151.361 45.052 151.349 44.6153C151.337 44.1785 151.335 43.7834 151.342 43.4302L151.833 40.6648ZM153.493 32.4972C153.501 32.1231 153.579 31.8753 153.727 31.7535C153.875 31.6317 154.135 31.5745 154.509 31.582C154.697 31.5858 154.883 31.631 155.068 31.7179C155.254 31.784 155.344 31.9521 155.338 32.2223C155.333 32.4924 155.193 32.739 154.919 32.9622C154.665 33.1858 154.413 33.2951 154.164 33.2901C153.914 33.2851 153.739 33.2089 153.638 33.0613C153.537 32.893 153.489 32.705 153.493 32.4972ZM164.009 43.0598C163.841 43.1396 163.663 43.188 163.476 43.2051C163.289 43.2014 163.102 43.1976 162.915 43.1939C162.728 43.1901 162.54 43.1968 162.353 43.2139C162.166 43.2101 161.978 43.2479 161.79 43.3273C161.435 43.3618 161.207 43.3364 161.105 43.2513C161.003 43.1453 160.975 43.0096 161.02 42.8442C161.065 42.6788 161.183 42.494 161.374 42.29C161.565 42.0859 161.787 41.9136 162.039 41.7732C162.27 41.6323 162.522 41.5334 162.793 41.4764C163.085 41.4199 163.345 41.4355 163.572 41.5232C163.475 41.1471 163.492 40.8252 163.622 40.5576C163.753 40.2899 164.005 40.1598 164.378 40.1673C164.566 40.1711 164.732 40.1952 164.876 40.2396C165.042 40.2637 165.165 40.3493 165.245 40.4965C165.56 40.3157 165.982 40.0123 166.51 39.5863C167.039 39.1396 167.578 38.693 168.128 38.2466C168.698 37.7799 169.216 37.3745 169.68 37.0304C170.144 36.6655 170.46 36.4847 170.626 36.4881C170.689 36.4893 170.772 36.5013 170.875 36.5242C170.979 36.5263 171.082 36.5491 171.185 36.5928C171.309 36.6368 171.401 36.6906 171.463 36.7542C171.545 36.7975 171.585 36.871 171.583 36.9749L171.556 38.3152C171.399 38.8941 171.242 39.4419 171.087 39.9585C170.952 40.4547 170.828 40.9511 170.714 41.4477C170.621 41.924 170.549 42.4111 170.498 42.909C170.446 43.4068 170.415 43.9363 170.403 44.4974C170.736 44.504 171.132 44.4392 171.593 44.3028C172.073 44.1669 172.554 43.9999 173.037 43.8016C173.519 43.6034 173.97 43.4045 174.39 43.2051C174.81 42.9848 175.146 42.8044 175.398 42.664C175.44 42.644 175.535 42.5731 175.683 42.4513C175.831 42.3296 175.99 42.208 176.158 42.0867C176.327 41.9446 176.485 41.823 176.633 41.722C176.802 41.6006 176.907 41.5196 176.95 41.4789C176.992 41.4381 177.097 41.3883 177.264 41.3293C177.432 41.2495 177.527 41.1994 177.548 41.179C177.632 41.1599 177.704 41.1925 177.764 41.2769C177.846 41.3409 177.918 41.4255 177.978 41.5306C178.038 41.615 178.078 41.7093 178.097 41.8136C178.137 41.8976 178.157 41.9499 178.156 41.9707C178.152 42.1785 178.065 42.3846 177.894 42.5891C177.724 42.7936 177.522 42.987 177.29 43.1695C177.058 43.3312 176.816 43.4926 176.563 43.6539C176.332 43.7948 176.152 43.9263 176.025 44.0485C175.858 44.1283 175.564 44.2576 175.145 44.4362C174.746 44.6154 174.316 44.8043 173.855 45.0029C173.394 45.2015 172.953 45.3903 172.534 45.5689C172.135 45.7481 171.852 45.8775 171.684 45.9573C171.642 45.9773 171.548 46.0066 171.402 46.0452C171.256 46.0631 171.099 46.1015 170.932 46.1605C170.764 46.2196 170.597 46.2682 170.43 46.3064C170.284 46.3243 170.19 46.3432 170.148 46.3632C169.96 46.4218 169.812 46.5228 169.705 46.6661C169.62 46.8099 169.523 46.9535 169.416 47.0969C169.33 47.2407 169.213 47.3631 169.066 47.4641C168.939 47.5655 168.731 47.5925 168.441 47.5451C168.42 47.5239 168.328 47.4805 168.162 47.4148C168.019 47.3288 167.927 47.2646 167.886 47.2222C167.394 46.859 166.975 46.518 166.628 46.1992C166.281 45.8805 165.965 45.5727 165.68 45.276C165.395 44.9585 165.121 44.6204 164.858 44.2618C164.616 43.9035 164.332 43.5029 164.009 43.0598ZM165.997 41.8524C166.137 42.167 166.265 42.4709 166.385 42.7644C166.524 43.0582 166.685 43.342 166.867 43.6159C167.049 43.869 167.252 44.0913 167.477 44.2829C167.722 44.4749 168.021 44.5953 168.374 44.6438C168.421 44.333 168.481 43.96 168.552 43.5249C168.623 43.0897 168.705 42.6341 168.798 42.1578C168.89 41.6815 168.993 41.2158 169.106 40.7608C169.241 40.2853 169.384 39.8724 169.537 39.5221L169.225 39.5158C168.887 39.7378 168.571 39.9601 168.276 40.1829C168.002 40.3853 167.728 40.5877 167.453 40.7901C167.179 40.9717 166.958 41.1336 166.788 41.2757C166.767 41.2961 166.735 41.3266 166.693 41.3673C166.651 41.4081 166.619 41.4282 166.599 41.4278C166.577 41.4689 166.482 41.5398 166.313 41.6404C166.145 41.7409 166.04 41.8116 165.997 41.8524ZM169.546 39.0545C169.483 39.0533 169.451 39.1046 169.449 39.2085C169.447 39.2916 169.478 39.3338 169.54 39.335C169.623 39.3367 169.666 39.296 169.667 39.2129C169.67 39.109 169.629 39.0562 169.546 39.0545ZM177.771 39.3749C177.814 39.2926 177.9 39.1696 178.028 39.0058C178.157 38.8213 178.222 38.6668 178.225 38.542L178.226 38.4486C178.227 38.4278 178.207 38.4066 178.165 38.385C178.125 38.3426 178.094 38.3212 178.073 38.3208L177.512 38.3095C176.969 38.465 176.364 38.5672 175.697 38.6163C175.011 38.6649 174.356 38.6726 173.732 38.6394C173.089 38.6057 172.539 38.5427 172.084 38.4505C171.629 38.3374 171.361 38.2178 171.28 38.0914C171.199 37.9651 171.358 37.8227 171.756 37.6643C172.155 37.4853 172.907 37.3132 174.012 37.1482C174.074 37.1494 174.22 37.1315 174.449 37.0946C174.658 37.0364 174.898 36.9892 175.17 36.9531C175.42 36.9165 175.659 36.8797 175.889 36.8427C176.119 36.7849 176.265 36.7567 176.327 36.7579C176.41 36.7388 176.588 36.732 176.857 36.7374C177.128 36.722 177.398 36.7066 177.669 36.6912C177.96 36.6762 178.231 36.6713 178.48 36.6762C178.75 36.6817 178.937 36.6854 179.041 36.6875L179.201 36.5036L181.713 32.469C181.8 32.3252 181.948 32.2138 182.157 32.1348C182.387 32.0563 182.565 32.0183 182.689 32.0208C182.96 32.0261 183.144 32.1442 183.244 32.3749C183.343 32.5847 183.391 32.7935 183.387 33.0014C183.386 33.0221 183.376 33.0427 183.354 33.063C183.354 33.0838 183.354 33.1046 183.353 33.1254L183.351 33.2501L181.912 36.5578L181.909 36.7448C181.953 36.621 182.027 36.5601 182.131 36.5622C182.256 36.5647 182.349 36.5665 182.412 36.5678C182.723 36.574 183.022 36.6839 183.309 36.8975C183.596 37.1112 183.735 37.3946 183.728 37.7478C183.725 37.9141 183.67 38.0481 183.565 38.1499C183.459 38.2517 183.332 38.3324 183.186 38.3918C183.039 38.4512 182.882 38.5001 182.715 38.5383C182.548 38.5558 182.402 38.5632 182.278 38.5608C182.028 38.5558 181.79 38.5198 181.563 38.4529C181.356 38.3864 181.128 38.3507 180.879 38.3457C180.65 38.3411 180.44 38.4616 180.248 38.7073C180.057 38.9321 179.874 39.2403 179.7 39.6318C179.546 40.0029 179.413 40.4264 179.3 40.9022C179.187 41.3781 179.083 41.8437 178.991 42.2992C178.899 42.7547 178.828 43.1795 178.779 43.5735C178.75 43.9678 178.734 44.2689 178.73 44.4768C178.728 44.5599 178.724 44.7261 178.72 44.9755C178.736 45.2252 178.742 45.3917 178.741 45.4748C178.759 45.5999 178.809 45.7152 178.89 45.8208C178.971 45.9056 179.053 46.0007 179.133 46.1063L179.85 46.1206C180.682 46.1372 181.506 45.9667 182.324 45.6088C183.163 45.2514 183.95 44.841 184.687 44.3776C184.729 44.3576 184.824 44.266 184.973 44.1027C185.143 43.919 185.324 43.7459 185.514 43.5834C185.704 43.4001 185.874 43.2372 186.023 43.0947C186.192 42.9525 186.307 42.8821 186.37 42.8833C186.515 42.8862 186.649 42.9617 186.771 43.1096C186.893 43.2575 186.952 43.4147 186.948 43.5809C186.941 43.9757 186.787 44.3572 186.489 44.7255C186.212 45.0941 185.851 45.4403 185.408 45.764C184.965 46.067 184.461 46.3479 183.894 46.6068C183.328 46.8657 182.762 47.0832 182.198 47.2589C181.653 47.4352 181.131 47.5702 180.63 47.6641C180.15 47.7585 179.754 47.8026 179.443 47.7963C179.152 47.7905 178.851 47.7533 178.541 47.6847C178.231 47.5954 177.953 47.4651 177.706 47.2938C177.461 47.1226 177.257 46.9107 177.096 46.658C176.934 46.4053 176.857 46.092 176.865 45.7179L176.934 42.2581L177.771 39.3749ZM186.132 46.9634C186.133 46.9011 186.137 46.7452 186.142 46.4959C186.147 46.2465 186.15 46.0803 186.151 45.9971C185.823 44.7433 185.796 43.5163 186.07 42.316C186.364 41.1162 186.853 40.045 187.537 39.1025C188.242 38.1395 189.12 37.3463 190.172 36.723C191.245 36.0792 192.407 35.697 193.657 35.5765L194.218 35.5877C194.675 35.5969 195.047 35.7083 195.333 35.9219C195.641 36.1151 195.875 36.3692 196.036 36.6843C196.216 36.9997 196.334 37.3555 196.388 37.7515C196.463 38.148 196.497 38.5436 196.49 38.9384C196.478 39.4787 196.405 40.0074 196.27 40.5244C196.156 41.021 196.022 41.5276 195.866 42.0442C195.731 42.5612 195.596 43.0782 195.461 43.5952C195.347 44.0918 195.284 44.6207 195.273 45.1817L195.269 45.3687C195.289 45.4107 195.308 45.5358 195.324 45.744C195.362 45.9319 195.391 46.0468 195.411 46.0888C195.452 46.0896 195.556 46.1021 195.722 46.1262C195.888 46.1295 195.992 46.1315 196.034 46.1324C196.242 46.1365 196.439 46.1405 196.626 46.1442C196.834 46.1276 197.043 46.0798 197.252 46.0009L203.23 43.3763C203.25 43.3768 203.281 43.3774 203.323 43.3782C203.386 43.3587 203.428 43.3491 203.448 43.3495C203.656 43.3537 203.821 43.4193 203.943 43.5466C204.086 43.6741 204.156 43.8418 204.151 44.0496C204.149 44.1535 204.137 44.2572 204.114 44.3607C204.112 44.4438 204.059 44.5259 203.953 44.6069C203.806 44.7079 203.532 44.848 203.134 45.0271C202.756 45.2066 202.347 45.4063 201.906 45.6262C201.465 45.846 201.045 46.0559 200.646 46.2558C200.268 46.4561 199.995 46.5858 199.828 46.6448C199.533 46.8052 199.208 46.9547 198.852 47.093C198.496 47.2106 198.13 47.3281 197.754 47.4452C197.377 47.5624 197.001 47.6588 196.625 47.7345C196.271 47.7898 195.948 47.8145 195.657 47.8087C195.2 47.7996 194.827 47.7193 194.539 47.5681C194.252 47.396 194.038 47.1839 193.897 46.9316C193.757 46.6586 193.659 46.3447 193.604 45.9903C193.57 45.6154 193.578 45.231 193.628 44.837C193.205 45.1612 192.751 45.5055 192.266 45.87C191.781 46.2344 191.275 46.5673 190.749 46.8686C190.223 47.1699 189.688 47.4295 189.143 47.6472C188.598 47.865 188.046 47.9683 187.484 47.9571C187.173 47.9508 186.894 47.8725 186.647 47.7221C186.401 47.5508 186.23 47.2979 186.132 46.9634ZM187.829 46.3425C188.306 46.3521 188.839 46.2276 189.426 45.9691C190.014 45.6898 190.593 45.348 191.162 44.9436C191.731 44.5392 192.249 44.113 192.716 43.665C193.182 43.1962 193.544 42.7773 193.8 42.4083C193.834 41.7853 193.929 41.1947 194.086 40.6366C194.263 40.0581 194.359 39.4675 194.37 38.8649C194.371 38.8233 194.362 38.7608 194.343 38.6772C194.345 38.5941 194.346 38.5318 194.347 38.4903C194.081 38.2563 193.855 38.1167 193.669 38.0713C193.483 38.026 193.234 38.0003 192.923 37.994C192.88 37.9932 192.787 37.9914 192.642 37.9884C192.517 37.9859 192.434 37.9947 192.392 38.0146C192.265 38.116 192.053 38.3093 191.757 38.5943C191.46 38.8587 191.143 39.1538 190.803 39.4796C190.485 39.8058 190.178 40.1115 189.881 40.3966C189.605 40.6821 189.414 40.8758 189.308 40.9776C189.287 40.9772 189.245 41.0179 189.181 41.0998C189.117 41.1609 189.043 41.2425 188.958 41.3448C188.893 41.4474 188.829 41.5501 188.764 41.6527C188.721 41.735 188.688 41.8071 188.667 41.8691L187.846 45.5009L187.829 46.3425Z" fill="white"/>
<path d="M18.9739 72.8138C18.6628 76.7543 17.0349 84.8683 21.8284 86.9115C23.5665 87.6526 27.5839 86.9993 29.239 86.854C30.9419 86.705 35.297 87.4526 36.1007 85.0418C37.204 81.7313 36.9612 72.3243 34.3715 69.7066C33.0966 68.4179 30.1463 69.8151 29.1841 70.0806C24.9601 71.2458 20.7615 71.8875 16.5037 72.8138" stroke="white" stroke-width="2" stroke-linecap="round"/>
<path d="M17.7886 109.936C18.2685 115.007 18.8593 121.562 21.8514 125.736C24.9233 130.02 33.352 130.042 34.0399 123.925C34.3597 121.081 35.6027 111.767 32.8238 109.761C28.2066 106.428 18.1205 110.857 13.3112 112.039" stroke="white" stroke-width="2" stroke-linecap="round"/>
<path d="M19.0168 147.382C16.0533 147.517 17.5631 161.814 18.1791 163.732C19.5132 167.886 23.1444 168.451 26.6677 169.346C29.3963 170.04 32.6278 171.466 34.4861 168.212C36.1066 165.374 39.8081 151.677 34.4861 150.35C28.9624 148.972 22.0942 150.563 16.5037 151.048" stroke="white" stroke-width="2" stroke-linecap="round"/>
<path d="M19.0289 195.187C19.8523 199.274 19.8805 204.779 22.9851 207.866C24.6921 209.563 34.1967 211.098 34.5732 207.14C34.8564 204.162 32.2062 193.983 28.9335 193.243C25.4165 192.447 19.6301 196.485 16.5037 197.798" stroke="white" stroke-width="2" stroke-linecap="round"/>
<path d="M46.8314 79.2609C53.6765 71.5214 63.0408 78.2537 71.2347 78.4686C78.2382 78.6527 85.2865 77.7466 92.3263 77.8935C100.494 78.0637 108.604 77.6349 116.766 77.3997C122.468 77.2353 128.248 76.8501 133.947 76.9459C140.099 77.0491 145.967 78.8645 152.04 79.6264C165.158 81.2721 178.852 80.0856 191.867 78.3346" stroke="white" stroke-width="2" stroke-linecap="round"/>
<path d="M51.4335 119.112C51.047 119.064 49.4918 118.958 49.4918 118.394C49.4918 116.045 62.8461 119.565 63.0291 119.606C72.103 121.621 80.0952 121.88 89.5026 121.535C105.597 120.944 121.402 119.638 137.472 121.238C144.556 121.943 151.384 122.638 158.53 122.276C166.351 121.88 174.174 121.076 181.995 120.595C186.803 120.299 191.428 119.576 196.161 118.815C197.426 118.611 198.772 118.052 199.99 118.419C200.358 118.53 199.288 118.798 199.115 119.112" stroke="white" stroke-width="2" stroke-linecap="round"/>
<path d="M44.7032 161.394C48.8895 160.446 50.9402 159.579 55.4052 160.976C61.9751 163.032 69.174 162.802 75.9866 163.244C85.3802 163.855 94.7813 162.85 104.197 163.543C107.451 163.783 110.727 164.409 113.993 164.409C117.552 164.409 120.923 163.392 124.448 163.125C131.859 162.564 139.155 163.533 146.621 162.409C155.491 161.074 163.094 157.008 172.087 159.185C177.989 160.615 184.082 162.541 190.144 161.573C196.75 160.519 203.668 160.857 210.176 160.857" stroke="white" stroke-width="2" stroke-linecap="round"/>
<path d="M46.8314 202.185C48.5859 201.762 50.0443 199.464 52.0316 198.915C57.2381 197.475 63.2228 198.667 68.5626 198.201C75.4497 197.601 82.3798 197.742 89.2536 197.012C99.9753 195.873 110.508 193.325 121.248 192.314C132.745 191.233 143.783 190.216 155.322 191.928C164.975 193.36 174.511 195.432 184.279 195.793C187.26 195.903 188.772 195.828 191.477 195.525C194.788 195.155 192.161 195.411 192.161 195.228" stroke="white" stroke-width="2" stroke-linecap="round"/>
<path d="M17.3766 74.3446C17.1131 74.3824 23.8997 82.1191 24.7478 83.4387C25.3257 84.3373 25.7227 86.2443 27.0354 86.0367C28.6393 85.7835 30.5579 81.2375 31.4977 79.9366C34.9817 75.1124 37.4797 70.9404 42.2863 67.7358" stroke="#FFAE35" stroke-width="2" stroke-linecap="round"/>
<path d="M20.9351 116.03C21.131 118.674 22.8916 120.584 23.957 122.893C25.3049 125.814 26.2801 120.024 26.64 118.854C27.7881 115.123 29.1351 111.086 31.1023 107.699C32.2164 105.78 33.8902 104.518 35.1692 102.813" stroke="#FFAE35" stroke-width="2" stroke-linecap="round"/>
</svg>
